<svg xmlns="http://www.w3.org/2000/svg" viewBox="0 0 100 120" fill="none">
  <defs>
    <filter id="iconShadow" x="0" y="0" width="100" height="100" filterUnits="userSpaceOnUse" color-interpolation-filters="sRGB">
      <feFlood flood-opacity="0" result="BackgroundImageFix"/>
      <feColorMatrix in="SourceAlpha" type="matrix" values="0 0 0 0 0 0 0 0 0 0 0 0 0 0 0 0 0 0 127 0" result="hardAlpha"/>
      <feOffset dx="0" dy="3"/>
      <feGaussianBlur stdDeviation="2"/>
      <feComposite in2="hardAlpha" operator="out"/>
      <feColorMatrix type="matrix" values="0 0 0 0 0 0 0 0 0 0 0 0 0 0 0 0 0 0 0.25 0"/>
      <feBlend mode="normal" in2="BackgroundImageFix" result="effect1_dropShadow_1"/>
      <feBlend mode="normal" in="SourceGraphic" in2="effect1_dropShadow_1" result="shape"/>
    </filter>

    <linearGradient id="questGradient" x1="20" y1="80" x2="80" y2="20" gradientUnits="userSpaceOnUse">
      <stop offset="0" stop-color="#FBBF24" /> <stop offset="1" stop-color="#F59E0B" /> </linearGradient>
  </defs>

  <g filter="url(#iconShadow)">
    <circle cx="50" cy="50" r="48" fill="#FFFFFF" stroke="#E5E7EB" stroke-width="1.5"/>

    <path d="M40 30 C34.4772 30 30 34.4772 30 40 V60 C30 65.5228 34.4772 70 40 70 H60 C65.5228 70 70 65.5228 70 60 V40 C70 34.4772 65.5228 30 60 30 H40Z" fill="#1E3A8A" />

    <path d="M22 78 L78 22" stroke="url(#questGradient)" stroke-width="10" stroke-linecap="round" />
    <path d="M72 16 L88 18 L84 34 Z" fill="#FBBF24" stroke="#F59E0B" stroke-width="2"/>

    <path d="M80 30 L82 25 L87 27 L85 32 L87 37 L82 35 L80 30Z" fill="#FFFFFF" fill-opacity="0.9"/>

    <circle cx="28" cy="72" r="6" fill="#1E3A8A" stroke="#FFFFFF" stroke-width="3"/>
    <circle cx="72" cy="28" r="6" fill="#1E3A8A" stroke="#FFFFFF" stroke-width="3"/>
    <circle cx="50" cy="50" r="5" fill="#FFFFFF" />
    <circle cx="50" cy="50" r="2.5" fill="#1E3A8A" />

    <path d="M34 66 L45 55 M55 45 L66 34" stroke="#FFFFFF" stroke-width="2.5" stroke-linecap="round"/>
  </g>

  <text x="50" y="110" font-family="sans-serif" font-weight="800" text-anchor="middle" dominant-baseline="central">
    <tspan fill="#111827" font-size="20">DI</tspan>
    <tspan fill="#D97706" font-size="20"> QUEST</tspan>
  </text>
</svg>
